<?xml version="1.0" encoding="utf-8"?>
<!-- Generator: Adobe Illustrator 16.0.0, SVG Export Plug-In . SVG Version: 6.00 Build 0)  -->
<!DOCTYPE svg PUBLIC "-//W3C//DTD SVG 1.1//EN" "http://www.w3.org/Graphics/SVG/1.1/DTD/svg11.dtd">
<svg version="1.1" id="Layer_1" xmlns="http://www.w3.org/2000/svg" xmlns:xlink="http://www.w3.org/1999/xlink" x="0px" y="0px"
   width="596.75px" height="574.333px" viewBox="0 0 596.75 574.333" enable-background="new 0 0 596.75 574.333"
   xml:space="preserve">
<rect x="-384" y="1217.667" fill="#EDEDED" width="1280" height="800"/>
<rect x="-383.5" y="2017.167" fill="#FFFFFF" stroke="#000000" stroke-miterlimit="10" width="1280" height="800"/>
<rect x="-384.5" y="1218.167" fill="#FFFFFF" stroke="#000000" stroke-miterlimit="10" width="853" height="553"/>
<g>
  <g id="layer3_1_">
    
      <rect id="background_1_" x="30" y="7.667" fill="none" stroke="#004C98" stroke-width="14" stroke-miterlimit="10" width="560" height="560"/>
  </g>
  <g id="layer1_1_">
    <g id="text3041_1_">
      <path id="path3059_1_" fill="#004C98" d="M213.276,461.011c-7.302,0-12.897,2.286-16.788,6.858
        c-3.821,4.503-5.732,10.783-5.732,18.834c0,3.822,0.443,7.335,1.331,10.544c0.956,3.138,2.32,5.833,4.095,8.085
        c1.842,2.252,4.094,4.027,6.756,5.324c2.729,1.228,5.902,1.841,9.52,1.841c2.252,0,4.196-0.066,5.834-0.204
        c1.638-0.205,2.934-0.443,3.89-0.717v-25.487h12.897v34.085c-1.774,0.683-4.777,1.433-9.008,2.252
        c-4.231,0.818-9.11,1.229-14.638,1.229c-5.118,0-9.792-0.82-14.023-2.458s-7.848-4.026-10.85-7.165
        c-2.935-3.14-5.221-6.996-6.858-11.567c-1.638-4.571-2.457-9.826-2.457-15.764c0-5.936,0.887-11.191,2.662-15.763
        c1.842-4.572,4.333-8.428,7.472-11.568c3.139-3.207,6.824-5.629,11.055-7.267c4.23-1.638,8.734-2.457,13.511-2.458
        c3.276,0.001,6.176,0.239,8.701,0.717c2.593,0.411,4.811,0.888,6.654,1.434c1.842,0.546,3.344,1.126,4.504,1.74
        c1.228,0.615,2.081,1.059,2.559,1.331l-3.89,10.543c-2.047-1.228-4.606-2.252-7.677-3.07
        C219.792,461.456,216.62,461.011,213.276,461.011"/>
      <path id="path3061_1_" fill="#004C98" d="M269.635,450.571c10.236,0,18.05,1.877,23.44,5.63c5.46,3.752,8.189,9.485,8.189,17.196
        c0,9.622-4.743,16.139-14.229,19.551c1.297,1.57,2.764,3.48,4.401,5.732s3.31,4.709,5.017,7.371
        c1.705,2.593,3.344,5.289,4.913,8.086c1.569,2.729,2.968,5.425,4.196,8.086h-14.433c-1.297-2.456-2.695-4.914-4.196-7.371
        c-1.502-2.524-3.037-4.947-4.606-7.268c-1.502-2.388-3.003-4.606-4.504-6.653c-1.502-2.115-2.9-3.992-4.197-5.63
        c-0.955,0.068-1.774,0.103-2.456,0.103c-0.683,0-1.331,0-1.945,0h-6.244v26.819h-12.897v-69.913
        c3.14-0.683,6.483-1.126,10.031-1.331C263.664,450.708,266.837,450.571,269.635,450.571 M270.557,461.728
        c-2.729,0-5.255,0.103-7.575,0.307v22.93h5.63c3.14,0,5.903-0.171,8.291-0.513c2.389-0.341,4.368-0.955,5.938-1.842
        c1.638-0.888,2.866-2.081,3.685-3.583c0.819-1.501,1.229-3.412,1.229-5.732c0-2.184-0.409-4.025-1.229-5.527
        c-0.818-1.501-2.013-2.696-3.582-3.583c-1.502-0.888-3.31-1.501-5.426-1.842C275.401,461.933,273.081,461.728,270.557,461.728"/>
      <path id="path3063_1_" fill="#004C98" d="M315.659,522.224v-70.936h45.551v10.952h-32.653v17.504h29.07v10.748h-29.07v20.779
        h35.109v10.953H315.659"/>
      <path id="path3065_1_" fill="#004C98" d="M375.636,522.224v-70.936h45.551v10.952h-32.652v17.504h29.07v10.748h-29.07v20.779
        h35.109v10.953H375.636"/>
      <path id="path3067_1_" fill="#004C98" d="M464.542,523.759c-5.323,0-10.1-0.818-14.331-2.457
        c-4.23-1.638-7.813-4.026-10.748-7.165c-2.935-3.208-5.187-7.098-6.756-11.67c-1.569-4.571-2.354-9.826-2.354-15.764
        c0-5.936,0.888-11.191,2.662-15.763c1.842-4.572,4.333-8.428,7.472-11.568c3.14-3.207,6.824-5.629,11.056-7.267
        c4.23-1.638,8.769-2.457,13.613-2.458c2.935,0.001,5.596,0.239,7.984,0.717c2.389,0.411,4.47,0.888,6.244,1.434
        s3.241,1.126,4.401,1.74c1.16,0.615,1.979,1.059,2.457,1.331l-3.787,10.543c-1.639-1.023-3.992-1.979-7.063-2.865
        c-3.002-0.956-6.278-1.434-9.826-1.434c-3.071,0-5.938,0.546-8.599,1.638c-2.661,1.023-4.981,2.594-6.961,4.709
        c-1.91,2.115-3.412,4.776-4.504,7.984c-1.092,3.208-1.638,6.926-1.638,11.157c0,3.753,0.41,7.199,1.229,10.338
        c0.887,3.139,2.218,5.869,3.992,8.189c1.774,2.252,4.026,4.025,6.756,5.322c2.729,1.229,6.005,1.843,9.826,1.843
        c4.572,0,8.292-0.443,11.158-1.331c2.865-0.955,5.084-1.842,6.653-2.661l3.48,10.543c-0.819,0.546-1.945,1.092-3.378,1.638
        c-1.365,0.546-3.003,1.092-4.914,1.638c-1.91,0.479-4.061,0.854-6.448,1.126C469.83,523.588,467.271,523.759,464.542,523.759"/>
      <path id="path3069_1_" fill="#004C98" d="M498.39,522.224v-70.936h45.551v10.952h-32.653v17.504h29.07v10.748h-29.07v20.779
        h35.109v10.953H498.39"/>
    </g>
  </g>
  <g id="layer2_1_">
    <g id="g2993_1_" transform="translate(0,-132.76875)">
      <path id="j_1_" fill="#004C98" d="M177.245,490.395l42.855-25.936c8.268,14.659,15.789,27.062,33.829,27.062
        c17.292,0,28.194-6.765,28.194-33.076V279.512h52.626V459.19c0,54.506-31.95,79.316-78.564,79.316
        c-42.099,0-66.536-21.804-78.94-48.116"/>
      <path id="s_1_" fill="#004C98" d="M363.333,484.756l42.851-24.811c11.279,18.422,25.939,31.954,51.876,31.954
        c21.806,0,35.711-10.902,35.711-25.939c0-18.043-14.284-24.435-38.343-34.958l-13.153-5.642
        c-37.969-16.161-63.155-36.46-63.155-79.313c0-39.47,30.072-69.544,77.062-69.544c33.456,0,57.514,11.654,74.804,42.104
        l-40.975,26.312c-9.022-16.162-18.793-22.552-33.829-22.552c-15.412,0-25.187,9.773-25.187,22.552
        c0,15.79,9.774,22.181,32.327,31.955l13.155,5.638c44.733,19.171,69.92,38.718,69.92,82.697
        c0,47.366-37.214,73.301-87.209,73.301C410.32,538.51,378.743,515.207,363.333,484.756"/>
    </g>
  </g>
  <circle fill="#004C98" cx="30" cy="402.667" r="30"/>
</g>
<g>
  <g id="layer3_2_">
    <rect id="background_2_" x="876.088" y="-154.258" fill="#004C98" width="560" height="560"/>
  </g>
  <g id="layer1_2_">
    <g id="text3041_2_">
      <path id="path3059_2_" fill="#FFFFFF" d="M1059.363,299.086c-7.301,0-12.896,2.286-16.787,6.858
        c-3.821,4.504-5.732,10.782-5.732,18.834c0,3.822,0.443,7.336,1.331,10.544c0.956,3.139,2.32,5.834,4.095,8.086
        c1.842,2.251,4.094,4.026,6.756,5.323c2.729,1.228,5.902,1.841,9.52,1.841c2.252,0,4.196-0.067,5.834-0.204
        c1.639-0.206,2.935-0.443,3.891-0.717v-25.488h12.896v34.086c-1.773,0.683-4.776,1.433-9.008,2.252
        c-4.23,0.818-9.109,1.229-14.637,1.229c-5.119,0-9.793-0.82-14.023-2.458c-4.231-1.638-7.848-4.027-10.851-7.165
        c-2.935-3.14-5.221-6.995-6.858-11.567c-1.638-4.571-2.457-9.826-2.457-15.764c0-5.936,0.888-11.191,2.662-15.763
        c1.842-4.572,4.333-8.427,7.473-11.567c3.139-3.208,6.824-5.63,11.055-7.268s8.734-2.456,13.512-2.457
        c3.275,0.001,6.176,0.239,8.7,0.717c2.593,0.411,4.812,0.888,6.653,1.434c1.843,0.546,3.344,1.126,4.504,1.74
        c1.229,0.614,2.082,1.058,2.56,1.33l-3.89,10.543c-2.047-1.228-4.606-2.252-7.678-3.07
        C1065.881,299.531,1062.707,299.086,1059.363,299.086"/>
      <path id="path3061_2_" fill="#FFFFFF" d="M1115.723,288.646c10.236,0,18.05,1.877,23.44,5.63
        c5.46,3.752,8.189,9.485,8.189,17.196c0,9.622-4.743,16.139-14.229,19.551c1.297,1.57,2.764,3.48,4.401,5.732
        s3.31,4.709,5.017,7.37c1.705,2.593,3.344,5.289,4.913,8.087c1.569,2.729,2.968,5.425,4.196,8.086h-14.433
        c-1.297-2.456-2.695-4.914-4.196-7.371c-1.502-2.524-3.037-4.947-4.606-7.268c-1.502-2.388-3.003-4.606-4.504-6.653
        c-1.502-2.115-2.9-3.992-4.197-5.63c-0.955,0.068-1.774,0.103-2.456,0.103c-0.683,0-1.331,0-1.945,0h-6.244v26.819h-12.897
        v-69.913c3.14-0.683,6.483-1.126,10.031-1.331C1109.752,288.783,1112.925,288.646,1115.723,288.646 M1116.645,299.803
        c-2.729,0-5.255,0.103-7.575,0.307v22.929h5.63c3.14,0,5.903-0.17,8.291-0.512c2.389-0.341,4.368-0.955,5.938-1.842
        c1.638-0.888,2.866-2.081,3.685-3.583c0.819-1.501,1.229-3.412,1.229-5.732c0-2.184-0.409-4.025-1.229-5.527
        c-0.818-1.501-2.013-2.696-3.582-3.583c-1.502-0.888-3.31-1.501-5.426-1.843C1121.489,300.008,1119.169,299.803,1116.645,299.803
        "/>
      <path id="path3063_2_" fill="#FFFFFF" d="M1161.747,360.299v-70.936h45.551v10.952h-32.653v17.504h29.07v10.748h-29.07v20.779
        h35.109v10.953H1161.747"/>
      <path id="path3065_2_" fill="#FFFFFF" d="M1221.724,360.299v-70.936h45.551v10.952h-32.652v17.504h29.07v10.748h-29.07v20.779
        h35.109v10.953H1221.724"/>
      <path id="path3067_2_" fill="#FFFFFF" d="M1310.63,361.833c-5.323,0-10.1-0.818-14.331-2.456
        c-4.23-1.638-7.813-4.026-10.748-7.165c-2.935-3.208-5.187-7.098-6.756-11.67c-1.569-4.571-2.354-9.826-2.354-15.764
        c0-5.936,0.888-11.191,2.662-15.763c1.842-4.572,4.333-8.427,7.472-11.567c3.14-3.208,6.824-5.63,11.056-7.268
        c4.23-1.638,8.769-2.456,13.613-2.457c2.935,0.001,5.596,0.239,7.984,0.717c2.389,0.411,4.47,0.888,6.244,1.434
        s3.241,1.126,4.401,1.74s1.979,1.058,2.457,1.33l-3.787,10.543c-1.639-1.023-3.992-1.979-7.063-2.865
        c-3.002-0.956-6.278-1.434-9.826-1.434c-3.071,0-5.938,0.546-8.599,1.638c-2.661,1.023-4.981,2.594-6.961,4.709
        c-1.91,2.115-3.412,4.776-4.504,7.984c-1.092,3.207-1.638,6.926-1.638,11.157c0,3.753,0.41,7.199,1.229,10.338
        c0.887,3.139,2.218,5.869,3.992,8.189c1.774,2.252,4.026,4.025,6.756,5.322c2.729,1.229,6.005,1.843,9.826,1.843
        c4.572,0,8.292-0.443,11.158-1.331c2.865-0.955,5.084-1.841,6.653-2.661l3.48,10.543c-0.819,0.546-1.945,1.092-3.378,1.638
        c-1.365,0.546-3.003,1.092-4.914,1.638c-1.91,0.479-4.061,0.854-6.448,1.126C1315.918,361.664,1313.359,361.833,1310.63,361.833"
        />
      <path id="path3069_2_" fill="#FFFFFF" d="M1344.478,360.299v-70.936h45.551v10.952h-32.653v17.504h29.07v10.748h-29.07v20.779
        h35.109v10.953H1344.478"/>
    </g>
  </g>
  <g id="layer2_2_">
    <g id="g2993_2_" transform="translate(0,-132.76875)">
      <path id="j_2_" fill="#FFFFFF" d="M1023.332,328.47l42.855-25.936c8.268,14.659,15.789,27.062,33.829,27.062
        c17.292,0,28.194-6.765,28.194-33.076V117.587h52.626v179.678c0,54.506-31.95,79.316-78.564,79.316
        c-42.099,0-66.536-21.804-78.94-48.116"/>
      <path id="s_2_" fill="#FFFFFF" d="M1209.421,322.832l42.851-24.811c11.279,18.422,25.939,31.954,51.876,31.954
        c21.806,0,35.711-10.902,35.711-25.939c0-18.043-14.284-24.436-38.343-34.958l-13.153-5.642
        c-37.969-16.161-63.155-36.46-63.155-79.313c0-39.47,30.072-69.545,77.062-69.545c33.456,0,57.514,11.655,74.804,42.104
        l-40.975,26.312c-9.022-16.162-18.793-22.552-33.829-22.552c-15.412,0-25.187,9.773-25.187,22.552
        c0,15.79,9.774,22.18,32.327,31.955l13.155,5.638c44.733,19.172,69.92,38.718,69.92,82.697c0,47.366-37.214,73.301-87.209,73.301
        C1256.408,376.585,1224.831,353.282,1209.421,322.832"/>
    </g>
  </g>
</g>
<rect x="-343" y="1084.667" width="208" height="15"/>
<rect x="-869" y="1324.667" width="15" height="208"/>
<g>
  <g id="layer3_3_">
    
      <rect id="background_3_" x="209.137" y="1444.167" fill="none" stroke="#004C98" stroke-width="2.525" stroke-miterlimit="10" width="101" height="101"/>
  </g>
  <g id="layer1_3_">
    <g id="text3041_3_">
      <path id="path3059_3_" fill="#004C98" d="M242.191,1525.931c-1.316,0-2.326,0.413-3.027,1.237
        c-0.689,0.813-1.033,1.944-1.033,3.396c0,0.689,0.079,1.323,0.239,1.902c0.173,0.565,0.419,1.052,0.738,1.458
        c0.333,0.406,0.739,0.727,1.219,0.96c0.492,0.222,1.064,0.332,1.717,0.332c0.406,0,0.757-0.012,1.053-0.037
        c0.295-0.037,0.529-0.08,0.701-0.129v-4.597h2.326v6.147c-0.32,0.123-0.861,0.259-1.625,0.406
        c-0.763,0.148-1.643,0.222-2.64,0.222c-0.923,0-1.766-0.147-2.529-0.443c-0.763-0.295-1.415-0.726-1.957-1.292
        c-0.529-0.566-0.941-1.262-1.236-2.086c-0.296-0.825-0.443-1.772-0.443-2.844c0-1.07,0.16-2.018,0.479-2.843
        c0.333-0.824,0.782-1.52,1.349-2.086c0.565-0.579,1.23-1.016,1.993-1.311s1.575-0.443,2.438-0.443
        c0.591,0,1.113,0.043,1.569,0.129c0.468,0.074,0.867,0.16,1.199,0.259c0.333,0.099,0.604,0.203,0.813,0.313
        c0.222,0.111,0.376,0.191,0.462,0.24l-0.702,1.901c-0.368-0.222-0.83-0.406-1.385-0.554
        C243.367,1526.01,242.795,1525.931,242.191,1525.931"/>
      <path id="path3061_3_" fill="#004C98" d="M252.356,1524.047c1.847,0,3.256,0.339,4.228,1.016c0.985,0.677,1.478,1.71,1.478,3.102
        c0,1.735-0.855,2.911-2.566,3.526c0.233,0.283,0.498,0.627,0.794,1.034c0.295,0.406,0.597,0.849,0.904,1.329
        c0.308,0.467,0.604,0.954,0.886,1.458c0.284,0.492,0.536,0.979,0.758,1.458h-2.604c-0.233-0.442-0.486-0.886-0.757-1.329
        c-0.271-0.455-0.548-0.892-0.831-1.311c-0.271-0.431-0.541-0.831-0.812-1.2c-0.271-0.382-0.523-0.72-0.757-1.016
        c-0.173,0.013-0.32,0.019-0.443,0.019s-0.24,0-0.351,0h-1.127v4.836h-2.326v-12.609c0.566-0.124,1.17-0.203,1.81-0.24
        C251.279,1524.072,251.853,1524.047,252.356,1524.047 M252.522,1526.06c-0.491,0-0.947,0.018-1.366,0.055v4.136h1.016
        c0.566,0,1.064-0.03,1.495-0.092c0.432-0.061,0.788-0.172,1.071-0.333c0.295-0.159,0.517-0.375,0.664-0.646
        c0.148-0.271,0.222-0.615,0.222-1.034c0-0.394-0.073-0.727-0.222-0.997c-0.147-0.271-0.362-0.486-0.646-0.646
        c-0.271-0.159-0.597-0.271-0.979-0.332C253.396,1526.097,252.979,1526.06,252.522,1526.06"/>
      <path id="path3063_3_" fill="#004C98" d="M260.657,1536.97v-12.793h8.216v1.975h-5.89v3.157h5.243v1.938h-5.243v3.747h6.333
        v1.976H260.657"/>
      <path id="path3065_3_" fill="#004C98" d="M271.475,1536.97v-12.793h8.216v1.975h-5.89v3.157h5.243v1.938h-5.243v3.747h6.333
        v1.976H271.475"/>
      <path id="path3067_3_" fill="#004C98" d="M287.51,1537.248c-0.96,0-1.822-0.147-2.585-0.443
        c-0.763-0.295-1.409-0.726-1.938-1.292c-0.529-0.579-0.936-1.28-1.219-2.104c-0.282-0.825-0.425-1.772-0.425-2.844
        c0-1.07,0.161-2.018,0.48-2.843c0.332-0.824,0.781-1.52,1.348-2.086c0.566-0.579,1.23-1.016,1.994-1.311
        c0.763-0.295,1.581-0.443,2.455-0.443c0.529,0,1.009,0.043,1.44,0.129c0.431,0.074,0.806,0.16,1.126,0.259
        c0.319,0.099,0.584,0.203,0.794,0.313c0.209,0.111,0.357,0.191,0.443,0.24l-0.684,1.901c-0.296-0.185-0.72-0.356-1.274-0.517
        c-0.541-0.172-1.132-0.259-1.771-0.259c-0.554,0-1.071,0.099-1.551,0.296c-0.48,0.185-0.898,0.468-1.256,0.849
        c-0.344,0.382-0.615,0.862-0.813,1.44c-0.196,0.578-0.295,1.249-0.295,2.013c0,0.677,0.074,1.298,0.222,1.864
        c0.16,0.566,0.399,1.059,0.72,1.477c0.32,0.406,0.727,0.726,1.219,0.96c0.492,0.222,1.083,0.333,1.771,0.333
        c0.825,0,1.496-0.08,2.013-0.24c0.518-0.171,0.917-0.332,1.2-0.48l0.628,1.902c-0.148,0.098-0.351,0.197-0.609,0.295
        c-0.246,0.099-0.542,0.196-0.887,0.295c-0.344,0.086-0.731,0.154-1.162,0.203C288.463,1537.217,288.002,1537.248,287.51,1537.248
        "/>
      <path id="path3069_3_" fill="#004C98" d="M293.614,1536.97v-12.793h8.216v1.975h-5.89v3.157h5.243v1.938h-5.243v3.747h6.332
        v1.976H293.614"/>
    </g>
  </g>
  <g id="layer2_3_">
    <g id="g2993_3_" transform="translate(0,-132.76875)">
      <path id="j_3_" fill="#004C98" d="M235.693,1640.053l7.729-4.678c1.491,2.644,2.848,4.881,6.101,4.881
        c3.119,0,5.085-1.221,5.085-5.966v-32.271h9.492v32.406c0,9.831-5.763,14.305-14.17,14.305
        C242.338,1648.73,237.931,1644.797,235.693,1640.053"/>
      <path id="s_3_" fill="#004C98" d="M269.256,1639.036l7.729-4.475c2.034,3.322,4.678,5.763,9.355,5.763
        c3.934,0,6.441-1.966,6.441-4.678c0-3.254-2.576-4.407-6.915-6.305l-2.373-1.018c-6.848-2.915-11.39-6.576-11.39-14.305
        c0-7.119,5.423-12.543,13.898-12.543c6.033,0,10.372,2.103,13.491,7.594l-7.391,4.745c-1.627-2.915-3.389-4.067-6.101-4.067
        c-2.78,0-4.543,1.763-4.543,4.067c0,2.848,1.763,4.001,5.83,5.764l2.373,1.017c8.067,3.458,12.61,6.983,12.61,14.915
        c0,8.543-6.712,13.221-15.729,13.221C277.73,1648.731,272.035,1644.528,269.256,1639.036"/>
    </g>
  </g>
  <circle fill="#004C98" cx="209.137" cy="1515.408" r="5.411"/>
</g>
<g>
  <text transform="matrix(1 0 0 1 -226.1367 1495.6655)" font-family="'ProximaNova-Semibold'" font-size="48">JavaScript Greece</text>
  <text transform="matrix(1 0 0 1 -226.1367 1527.147)"><tspan x="0" y="0" font-family="'ProximaNova-Regular'" font-size="24">A place to meet - </tspan><tspan x="185.54" y="0" font-family="'MyriadPro-Regular'" font-size="24">Placeholder</tspan></text>
</g>
<rect x="467" y="1218.667" fill="#C6C6C6" width="428" height="554"/>
<rect x="487" y="1714.667" width="40" height="40"/>
<rect x="641" y="1714.667" width="40" height="40"/>
<rect x="564" y="1714.667" width="40" height="40"/>
<text transform="matrix(1 0 0 1 493 1399.333)" font-family="'ProximaNova-Light'" font-size="18">Upcoming Event</text>
<g>
  <text transform="matrix(1 0 0 1 493 1463.8257)" font-family="'ProximaNova-Semibold'" font-size="24">16th GreeceJS Meetup</text>
  <g>
    <text transform="matrix(1 0 0 1 493 1492.6597)"><tspan x="0" y="0" font-family="'ProximaNova-Regular'" font-size="16">Wednesday, 21st of December</tspan><tspan x="0" y="19.2" font-family="'ProximaNova-Regular'" font-size="16">2016, 18:00 - 21:00 </tspan></text>
  </g>
  <text transform="matrix(1 0 0 1 493 1543.1597)" font-family="'ProximaNova-Regular'" font-size="16">@ Innovathens ( Technopolis, Gazi ) </text>
</g>
<rect x="-314" y="1792.667" fill="#EDEDED" width="1142" height="151"/>
<g>
  <text transform="matrix(1 0 0 1 -290 1885.1587)" font-family="'ProximaNova-Regular'" font-size="16">Participate in great discussions on our team&apos;s Slack.</text>
  <text transform="matrix(1 0 0 1 -290 1860.1587)" font-family="'ProximaNova-Semibold'" font-size="16">JOIN US ON SLACK</text>
</g>
<g>
  <text transform="matrix(1 0 0 1 353 1836.501)" font-family="'ProximaNova-Light'" font-size="14">Email</text>
  <g>
    <rect x="352.5" y="1846.167" fill="none" stroke="#000000" stroke-miterlimit="10" width="321" height="43"/>
    <text transform="matrix(1 0 0 1 365 1871.6157)" font-family="'ProximaNova-Light'" font-size="14">example: john@doe.com</text>
    <rect x="693.5" y="1846.167" fill="none" stroke="#000000" stroke-miterlimit="10" width="121" height="43"/>
    <text transform="matrix(1 0 0 1 738.418 1872.5337)" font-family="'ProximaNova-Semibold'" font-size="14">JOIN</text>
  </g>
</g>
<rect x="-237" y="1715.667" fill="#F4F4F4" width="558" height="40"/>
<text transform="matrix(1 0 0 1 -24.7158 1739.7759)" font-family="'MyriadPro-Regular'" font-size="14">&lt;Navigation Maybe?/&gt;</text>
<g>
  <rect x="-258.5" y="2188.167" fill="#FFFFFF" stroke="#000000" stroke-miterlimit="10" width="300" height="441"/>
  <text transform="matrix(0.9231 0 0 1 -241.9175 2211.9995)" font-family="'ProximaNova-Semibold'" font-size="14">&lt;Article&gt;</text>
  <text transform="matrix(0.9231 0 0 1 -241.9175 2609.3325)" font-family="'ProximaNova-Semibold'" font-size="14">&lt;/Article&gt;</text>
</g>
<g>
  <rect x="106.5" y="2188.167" fill="#FFFFFF" stroke="#000000" stroke-miterlimit="10" width="300" height="441"/>
  <text transform="matrix(0.9231 0 0 1 123.0825 2211.9995)" font-family="'ProximaNova-Semibold'" font-size="14">&lt;Article&gt;</text>
  <text transform="matrix(0.9231 0 0 1 123.0825 2609.3325)" font-family="'ProximaNova-Semibold'" font-size="14">&lt;/Article&gt;</text>
</g>
<g>
  <rect x="466.5" y="2188.167" fill="#FFFFFF" stroke="#000000" stroke-miterlimit="10" width="300" height="441"/>
  <text transform="matrix(0.9231 0 0 1 483.0825 2211.9995)" font-family="'ProximaNova-Semibold'" font-size="14">&lt;Article&gt;</text>
  <text transform="matrix(0.9231 0 0 1 483.0825 2609.3325)" font-family="'ProximaNova-Semibold'" font-size="14">&lt;/Article&gt;</text>
</g>
<g>
  <rect x="1083.5" y="2300.167" fill="#FFFFFF" stroke="#000000" stroke-miterlimit="10" width="1142" height="441"/>
  <text transform="matrix(1 0 0 1 1101 2323.9995)" font-family="'ProximaNova-Semibold'" font-size="14">&lt;Article&gt;</text>
  <text transform="matrix(1 0 0 1 1101 2721.3325)" font-family="'ProximaNova-Semibold'" font-size="14">&lt;/Article&gt;</text>
</g>
<text transform="matrix(1 0 0 1 141.6733 2100.8174)" font-family="'MyriadPro-Regular'" font-size="24">Past GreeceJS Meetups</text>
<text transform="matrix(1 0 0 1 76.2153 2126.1582)" font-family="'ProximaNova-Regular'" font-size="16">Participate in great discussions on our team&apos;s Slack.</text>
</svg>